solid OpenSCAD_Model
  facet normal -0.998427 -0.0560743 0
    outer loop
      vertex -1.55 6 0
      vertex -1.56069 6.19034 1.45
      vertex -1.56069 6.19034 0
    endloop
  endfacet
  facet normal -0.998427 -0.0560743 0
    outer loop
      vertex -1.56069 6.19034 1.45
      vertex -1.55 6 0
      vertex -1.55 6 1.45
    endloop
  endfacet
  facet normal 0.0560743 -0.998427 0
    outer loop
      vertex -3.44034 7.68931 0
      vertex -3.25 7.7 1.45
      vertex -3.44034 7.68931 1.45
    endloop
  endfacet
  facet normal 0.0560743 -0.998427 0
    outer loop
      vertex -3.25 7.7 1.45
      vertex -3.44034 7.68931 0
      vertex -3.25 7.7 0
    endloop
  endfacet
  facet normal -0.0560743 0.998427 0
    outer loop
      vertex -3.05966 4.31069 0
      vertex -3.25 4.3 1.45
      vertex -3.05966 4.31069 1.45
    endloop
  endfacet
  facet normal -0.0560743 0.998427 0
    outer loop
      vertex -3.25 4.3 1.45
      vertex -3.05966 4.31069 0
      vertex -3.25 4.3 0
    endloop
  endfacet
  facet normal -0.666338 -0.74565 0
    outer loop
      vertex -2.19007 7.32911 0
      vertex -2.04792 7.20208 1.45
      vertex -2.19007 7.32911 1.45
    endloop
  endfacet
  facet normal -0.666338 -0.74565 -0
    outer loop
      vertex -2.04792 7.20208 1.45
      vertex -2.19007 7.32911 0
      vertex -2.04792 7.20208 0
    endloop
  endfacet
  facet normal 0.74565 -0.666338 0
    outer loop
      vertex -4.57911 7.05993 1.45
      vertex -4.45208 7.20208 0
      vertex -4.45208 7.20208 1.45
    endloop
  endfacet
  facet normal 0.74565 -0.666338 0
    outer loop
      vertex -4.45208 7.20208 0
      vertex -4.57911 7.05993 1.45
      vertex -4.57911 7.05993 0
    endloop
  endfacet
  facet normal 0.382659 -0.92389 0
    outer loop
      vertex -3.9876 7.53165 0
      vertex -3.81147 7.6046 1.45
      vertex -3.9876 7.53165 1.45
    endloop
  endfacet
  facet normal 0.382659 -0.92389 0
    outer loop
      vertex -3.81147 7.6046 1.45
      vertex -3.9876 7.53165 0
      vertex -3.81147 7.6046 0
    endloop
  endfacet
  facet normal -0.92389 -0.382659 0
    outer loop
      vertex -1.6454 6.56147 0
      vertex -1.71835 6.7376 1.45
      vertex -1.71835 6.7376 0
    endloop
  endfacet
  facet normal -0.92389 -0.382659 0
    outer loop
      vertex -1.71835 6.7376 1.45
      vertex -1.6454 6.56147 0
      vertex -1.6454 6.56147 1.45
    endloop
  endfacet
  facet normal -0.985874 -0.167486 0
    outer loop
      vertex -1.56069 6.19034 0
      vertex -1.59262 6.37829 1.45
      vertex -1.59262 6.37829 0
    endloop
  endfacet
  facet normal -0.985874 -0.167486 0
    outer loop
      vertex -1.59262 6.37829 1.45
      vertex -1.56069 6.19034 0
      vertex -1.56069 6.19034 1.45
    endloop
  endfacet
  facet normal -0.276868 -0.960908 0
    outer loop
      vertex -2.87171 7.65738 0
      vertex -2.68853 7.6046 1.45
      vertex -2.87171 7.65738 1.45
    endloop
  endfacet
  facet normal -0.276868 -0.960908 -0
    outer loop
      vertex -2.68853 7.6046 1.45
      vertex -2.87171 7.65738 0
      vertex -2.68853 7.6046 0
    endloop
  endfacet
  facet normal -0.483718 -0.875224 0
    outer loop
      vertex -2.5124 7.53165 0
      vertex -2.34554 7.43943 1.45
      vertex -2.5124 7.53165 1.45
    endloop
  endfacet
  facet normal -0.483718 -0.875224 -0
    outer loop
      vertex -2.34554 7.43943 1.45
      vertex -2.5124 7.53165 0
      vertex -2.34554 7.43943 0
    endloop
  endfacet
  facet normal 0.960908 -0.276868 0
    outer loop
      vertex -4.90738 6.37829 1.45
      vertex -4.8546 6.56147 0
      vertex -4.8546 6.56147 1.45
    endloop
  endfacet
  facet normal 0.960908 -0.276868 0
    outer loop
      vertex -4.8546 6.56147 0
      vertex -4.90738 6.37829 1.45
      vertex -4.90738 6.37829 0
    endloop
  endfacet
  facet normal 0.167486 -0.985874 0
    outer loop
      vertex -3.62829 7.65738 0
      vertex -3.44034 7.68931 1.45
      vertex -3.62829 7.65738 1.45
    endloop
  endfacet
  facet normal 0.167486 -0.985874 0
    outer loop
      vertex -3.44034 7.68931 1.45
      vertex -3.62829 7.65738 0
      vertex -3.44034 7.68931 0
    endloop
  endfacet
  facet normal -0.960908 -0.276868 0
    outer loop
      vertex -1.59262 6.37829 0
      vertex -1.6454 6.56147 1.45
      vertex -1.6454 6.56147 0
    endloop
  endfacet
  facet normal -0.960908 -0.276868 0
    outer loop
      vertex -1.6454 6.56147 1.45
      vertex -1.59262 6.37829 0
      vertex -1.59262 6.37829 1.45
    endloop
  endfacet
  facet normal -0.815558 -0.578675 0
    outer loop
      vertex -1.81057 6.90445 0
      vertex -1.92089 7.05993 1.45
      vertex -1.92089 7.05993 0
    endloop
  endfacet
  facet normal -0.815558 -0.578675 0
    outer loop
      vertex -1.92089 7.05993 1.45
      vertex -1.81057 6.90445 0
      vertex -1.81057 6.90445 1.45
    endloop
  endfacet
  facet normal -0.74565 -0.666338 0
    outer loop
      vertex -1.92089 7.05993 0
      vertex -2.04792 7.20208 1.45
      vertex -2.04792 7.20208 0
    endloop
  endfacet
  facet normal -0.74565 -0.666338 0
    outer loop
      vertex -2.04792 7.20208 1.45
      vertex -1.92089 7.05993 0
      vertex -1.92089 7.05993 1.45
    endloop
  endfacet
  facet normal -0.875212 -0.48374 0
    outer loop
      vertex -1.71835 6.7376 0
      vertex -1.81057 6.90445 1.45
      vertex -1.81057 6.90445 0
    endloop
  endfacet
  facet normal -0.875212 -0.48374 0
    outer loop
      vertex -1.81057 6.90445 1.45
      vertex -1.71835 6.7376 0
      vertex -1.71835 6.7376 1.45
    endloop
  endfacet
  facet normal -0.167486 -0.985874 0
    outer loop
      vertex -3.05966 7.68931 0
      vertex -2.87171 7.65738 1.45
      vertex -3.05966 7.68931 1.45
    endloop
  endfacet
  facet normal -0.167486 -0.985874 -0
    outer loop
      vertex -2.87171 7.65738 1.45
      vertex -3.05966 7.68931 0
      vertex -2.87171 7.65738 0
    endloop
  endfacet
  facet normal -0.0560743 -0.998427 0
    outer loop
      vertex -3.25 7.7 0
      vertex -3.05966 7.68931 1.45
      vertex -3.25 7.7 1.45
    endloop
  endfacet
  facet normal -0.0560743 -0.998427 -0
    outer loop
      vertex -3.05966 7.68931 1.45
      vertex -3.25 7.7 0
      vertex -3.05966 7.68931 0
    endloop
  endfacet
  facet normal -0.382659 -0.92389 0
    outer loop
      vertex -2.68853 7.6046 0
      vertex -2.5124 7.53165 1.45
      vertex -2.68853 7.6046 1.45
    endloop
  endfacet
  facet normal -0.382659 -0.92389 -0
    outer loop
      vertex -2.5124 7.53165 1.45
      vertex -2.68853 7.6046 0
      vertex -2.5124 7.53165 0
    endloop
  endfacet
  facet normal -0.5787 -0.815541 0
    outer loop
      vertex -2.34554 7.43943 0
      vertex -2.19007 7.32911 1.45
      vertex -2.34554 7.43943 1.45
    endloop
  endfacet
  facet normal -0.5787 -0.815541 -0
    outer loop
      vertex -2.19007 7.32911 1.45
      vertex -2.34554 7.43943 0
      vertex -2.19007 7.32911 0
    endloop
  endfacet
  facet normal 0.875212 -0.48374 0
    outer loop
      vertex -4.78165 6.7376 1.45
      vertex -4.68943 6.90445 0
      vertex -4.68943 6.90445 1.45
    endloop
  endfacet
  facet normal 0.875212 -0.48374 0
    outer loop
      vertex -4.68943 6.90445 0
      vertex -4.78165 6.7376 1.45
      vertex -4.78165 6.7376 0
    endloop
  endfacet
  facet normal 0.815558 -0.578675 0
    outer loop
      vertex -4.68943 6.90445 1.45
      vertex -4.57911 7.05993 0
      vertex -4.57911 7.05993 1.45
    endloop
  endfacet
  facet normal 0.815558 -0.578675 0
    outer loop
      vertex -4.57911 7.05993 0
      vertex -4.68943 6.90445 1.45
      vertex -4.68943 6.90445 0
    endloop
  endfacet
  facet normal 0.92389 -0.382659 0
    outer loop
      vertex -4.8546 6.56147 1.45
      vertex -4.78165 6.7376 0
      vertex -4.78165 6.7376 1.45
    endloop
  endfacet
  facet normal 0.92389 -0.382659 0
    outer loop
      vertex -4.78165 6.7376 0
      vertex -4.8546 6.56147 1.45
      vertex -4.8546 6.56147 0
    endloop
  endfacet
  facet normal 0.985874 -0.167486 0
    outer loop
      vertex -4.93931 6.19034 1.45
      vertex -4.90738 6.37829 0
      vertex -4.90738 6.37829 1.45
    endloop
  endfacet
  facet normal 0.985874 -0.167486 0
    outer loop
      vertex -4.90738 6.37829 0
      vertex -4.93931 6.19034 1.45
      vertex -4.93931 6.19034 0
    endloop
  endfacet
  facet normal 0.998427 -0.0560743 0
    outer loop
      vertex -4.95 6 1.45
      vertex -4.93931 6.19034 0
      vertex -4.93931 6.19034 1.45
    endloop
  endfacet
  facet normal 0.998427 -0.0560743 0
    outer loop
      vertex -4.93931 6.19034 0
      vertex -4.95 6 1.45
      vertex -4.95 6 0
    endloop
  endfacet
  facet normal 0.998427 0.0560743 0
    outer loop
      vertex -4.93931 5.80966 1.45
      vertex -4.95 6 0
      vertex -4.95 6 1.45
    endloop
  endfacet
  facet normal 0.998427 0.0560743 0
    outer loop
      vertex -4.95 6 0
      vertex -4.93931 5.80966 1.45
      vertex -4.93931 5.80966 0
    endloop
  endfacet
  facet normal 0.578675 -0.815558 0
    outer loop
      vertex -4.30993 7.32911 0
      vertex -4.15445 7.43943 1.45
      vertex -4.30993 7.32911 1.45
    endloop
  endfacet
  facet normal 0.578675 -0.815558 0
    outer loop
      vertex -4.15445 7.43943 1.45
      vertex -4.30993 7.32911 0
      vertex -4.15445 7.43943 0
    endloop
  endfacet
  facet normal 0.48374 -0.875212 0
    outer loop
      vertex -4.15445 7.43943 0
      vertex -3.9876 7.53165 1.45
      vertex -4.15445 7.43943 1.45
    endloop
  endfacet
  facet normal 0.48374 -0.875212 0
    outer loop
      vertex -3.9876 7.53165 1.45
      vertex -4.15445 7.43943 0
      vertex -3.9876 7.53165 0
    endloop
  endfacet
  facet normal 0.666338 -0.74565 0
    outer loop
      vertex -4.45208 7.20208 0
      vertex -4.30993 7.32911 1.45
      vertex -4.45208 7.20208 1.45
    endloop
  endfacet
  facet normal 0.666338 -0.74565 0
    outer loop
      vertex -4.30993 7.32911 1.45
      vertex -4.45208 7.20208 0
      vertex -4.30993 7.32911 0
    endloop
  endfacet
  facet normal 0.276868 -0.960908 0
    outer loop
      vertex -3.81147 7.6046 0
      vertex -3.62829 7.65738 1.45
      vertex -3.81147 7.6046 1.45
    endloop
  endfacet
  facet normal 0.276868 -0.960908 0
    outer loop
      vertex -3.62829 7.65738 1.45
      vertex -3.81147 7.6046 0
      vertex -3.62829 7.65738 0
    endloop
  endfacet
  facet normal -0.998427 0.0560743 0
    outer loop
      vertex -1.56069 5.80966 0
      vertex -1.55 6 1.45
      vertex -1.55 6 0
    endloop
  endfacet
  facet normal -0.998427 0.0560743 0
    outer loop
      vertex -1.55 6 1.45
      vertex -1.56069 5.80966 0
      vertex -1.56069 5.80966 1.45
    endloop
  endfacet
  facet normal -0.74565 0.666338 0
    outer loop
      vertex -2.04792 4.79792 0
      vertex -1.92089 4.94007 1.45
      vertex -1.92089 4.94007 0
    endloop
  endfacet
  facet normal -0.74565 0.666338 0
    outer loop
      vertex -1.92089 4.94007 1.45
      vertex -2.04792 4.79792 0
      vertex -2.04792 4.79792 1.45
    endloop
  endfacet
  facet normal -0.985874 0.167486 0
    outer loop
      vertex -1.59262 5.62171 0
      vertex -1.56069 5.80966 1.45
      vertex -1.56069 5.80966 0
    endloop
  endfacet
  facet normal -0.985874 0.167486 0
    outer loop
      vertex -1.56069 5.80966 1.45
      vertex -1.59262 5.62171 0
      vertex -1.59262 5.62171 1.45
    endloop
  endfacet
  facet normal 0.578675 0.815558 -0
    outer loop
      vertex -4.15445 4.56057 0
      vertex -4.30993 4.67089 1.45
      vertex -4.15445 4.56057 1.45
    endloop
  endfacet
  facet normal 0.578675 0.815558 0
    outer loop
      vertex -4.30993 4.67089 1.45
      vertex -4.15445 4.56057 0
      vertex -4.30993 4.67089 0
    endloop
  endfacet
  facet normal 0.875224 0.483718 0
    outer loop
      vertex -4.68943 5.09554 1.45
      vertex -4.78165 5.2624 0
      vertex -4.78165 5.2624 1.45
    endloop
  endfacet
  facet normal 0.875224 0.483718 0
    outer loop
      vertex -4.78165 5.2624 0
      vertex -4.68943 5.09554 1.45
      vertex -4.68943 5.09554 0
    endloop
  endfacet
  facet normal 0.74565 0.666338 0
    outer loop
      vertex -4.45208 4.79792 1.45
      vertex -4.57911 4.94007 0
      vertex -4.57911 4.94007 1.45
    endloop
  endfacet
  facet normal 0.74565 0.666338 0
    outer loop
      vertex -4.57911 4.94007 0
      vertex -4.45208 4.79792 1.45
      vertex -4.45208 4.79792 0
    endloop
  endfacet
  facet normal -0.483718 0.875224 0
    outer loop
      vertex -2.34554 4.56057 0
      vertex -2.5124 4.46835 1.45
      vertex -2.34554 4.56057 1.45
    endloop
  endfacet
  facet normal -0.483718 0.875224 0
    outer loop
      vertex -2.5124 4.46835 1.45
      vertex -2.34554 4.56057 0
      vertex -2.5124 4.46835 0
    endloop
  endfacet
  facet normal -0.666338 0.74565 0
    outer loop
      vertex -2.04792 4.79792 0
      vertex -2.19007 4.67089 1.45
      vertex -2.04792 4.79792 1.45
    endloop
  endfacet
  facet normal -0.666338 0.74565 0
    outer loop
      vertex -2.19007 4.67089 1.45
      vertex -2.04792 4.79792 0
      vertex -2.19007 4.67089 0
    endloop
  endfacet
  facet normal -0.92389 0.382659 0
    outer loop
      vertex -1.71835 5.2624 0
      vertex -1.6454 5.43853 1.45
      vertex -1.6454 5.43853 0
    endloop
  endfacet
  facet normal -0.92389 0.382659 0
    outer loop
      vertex -1.6454 5.43853 1.45
      vertex -1.71835 5.2624 0
      vertex -1.71835 5.2624 1.45
    endloop
  endfacet
  facet normal -0.815541 0.5787 0
    outer loop
      vertex -1.92089 4.94007 0
      vertex -1.81057 5.09554 1.45
      vertex -1.81057 5.09554 0
    endloop
  endfacet
  facet normal -0.815541 0.5787 0
    outer loop
      vertex -1.81057 5.09554 1.45
      vertex -1.92089 4.94007 0
      vertex -1.92089 4.94007 1.45
    endloop
  endfacet
  facet normal 0.666338 0.74565 -0
    outer loop
      vertex -4.30993 4.67089 0
      vertex -4.45208 4.79792 1.45
      vertex -4.30993 4.67089 1.45
    endloop
  endfacet
  facet normal 0.666338 0.74565 0
    outer loop
      vertex -4.45208 4.79792 1.45
      vertex -4.30993 4.67089 0
      vertex -4.45208 4.79792 0
    endloop
  endfacet
  facet normal 0.960908 0.276868 0
    outer loop
      vertex -4.8546 5.43853 1.45
      vertex -4.90738 5.62171 0
      vertex -4.90738 5.62171 1.45
    endloop
  endfacet
  facet normal 0.960908 0.276868 0
    outer loop
      vertex -4.90738 5.62171 0
      vertex -4.8546 5.43853 1.45
      vertex -4.8546 5.43853 0
    endloop
  endfacet
  facet normal 0.985874 0.167486 0
    outer loop
      vertex -4.90738 5.62171 1.45
      vertex -4.93931 5.80966 0
      vertex -4.93931 5.80966 1.45
    endloop
  endfacet
  facet normal 0.985874 0.167486 0
    outer loop
      vertex -4.93931 5.80966 0
      vertex -4.90738 5.62171 1.45
      vertex -4.90738 5.62171 0
    endloop
  endfacet
  facet normal 0.92389 0.382659 0
    outer loop
      vertex -4.78165 5.2624 1.45
      vertex -4.8546 5.43853 0
      vertex -4.8546 5.43853 1.45
    endloop
  endfacet
  facet normal 0.92389 0.382659 0
    outer loop
      vertex -4.8546 5.43853 0
      vertex -4.78165 5.2624 1.45
      vertex -4.78165 5.2624 0
    endloop
  endfacet
  facet normal -0.382659 0.92389 0
    outer loop
      vertex -2.5124 4.46835 0
      vertex -2.68853 4.3954 1.45
      vertex -2.5124 4.46835 1.45
    endloop
  endfacet
  facet normal -0.382659 0.92389 0
    outer loop
      vertex -2.68853 4.3954 1.45
      vertex -2.5124 4.46835 0
      vertex -2.68853 4.3954 0
    endloop
  endfacet
  facet normal -0.276868 0.960908 0
    outer loop
      vertex -2.68853 4.3954 0
      vertex -2.87171 4.34262 1.45
      vertex -2.68853 4.3954 1.45
    endloop
  endfacet
  facet normal -0.276868 0.960908 0
    outer loop
      vertex -2.87171 4.34262 1.45
      vertex -2.68853 4.3954 0
      vertex -2.87171 4.34262 0
    endloop
  endfacet
  facet normal -0.167486 0.985874 0
    outer loop
      vertex -2.87171 4.34262 0
      vertex -3.05966 4.31069 1.45
      vertex -2.87171 4.34262 1.45
    endloop
  endfacet
  facet normal -0.167486 0.985874 0
    outer loop
      vertex -3.05966 4.31069 1.45
      vertex -2.87171 4.34262 0
      vertex -3.05966 4.31069 0
    endloop
  endfacet
  facet normal -0.960908 0.276868 0
    outer loop
      vertex -1.6454 5.43853 0
      vertex -1.59262 5.62171 1.45
      vertex -1.59262 5.62171 0
    endloop
  endfacet
  facet normal -0.960908 0.276868 0
    outer loop
      vertex -1.59262 5.62171 1.45
      vertex -1.6454 5.43853 0
      vertex -1.6454 5.43853 1.45
    endloop
  endfacet
  facet normal -0.875224 0.483718 0
    outer loop
      vertex -1.81057 5.09554 0
      vertex -1.71835 5.2624 1.45
      vertex -1.71835 5.2624 0
    endloop
  endfacet
  facet normal -0.875224 0.483718 0
    outer loop
      vertex -1.71835 5.2624 1.45
      vertex -1.81057 5.09554 0
      vertex -1.81057 5.09554 1.45
    endloop
  endfacet
  facet normal 0.0560743 0.998427 -0
    outer loop
      vertex -3.25 4.3 0
      vertex -3.44034 4.31069 1.45
      vertex -3.25 4.3 1.45
    endloop
  endfacet
  facet normal 0.0560743 0.998427 0
    outer loop
      vertex -3.44034 4.31069 1.45
      vertex -3.25 4.3 0
      vertex -3.44034 4.31069 0
    endloop
  endfacet
  facet normal 0.276868 0.960908 -0
    outer loop
      vertex -3.62829 4.34262 0
      vertex -3.81147 4.3954 1.45
      vertex -3.62829 4.34262 1.45
    endloop
  endfacet
  facet normal 0.276868 0.960908 0
    outer loop
      vertex -3.81147 4.3954 1.45
      vertex -3.62829 4.34262 0
      vertex -3.81147 4.3954 0
    endloop
  endfacet
  facet normal 0.167486 0.985874 -0
    outer loop
      vertex -3.44034 4.31069 0
      vertex -3.62829 4.34262 1.45
      vertex -3.44034 4.31069 1.45
    endloop
  endfacet
  facet normal 0.167486 0.985874 0
    outer loop
      vertex -3.62829 4.34262 1.45
      vertex -3.44034 4.31069 0
      vertex -3.62829 4.34262 0
    endloop
  endfacet
  facet normal 0.815541 0.5787 0
    outer loop
      vertex -4.57911 4.94007 1.45
      vertex -4.68943 5.09554 0
      vertex -4.68943 5.09554 1.45
    endloop
  endfacet
  facet normal 0.815541 0.5787 0
    outer loop
      vertex -4.68943 5.09554 0
      vertex -4.57911 4.94007 1.45
      vertex -4.57911 4.94007 0
    endloop
  endfacet
  facet normal -0.5787 0.815541 0
    outer loop
      vertex -2.19007 4.67089 0
      vertex -2.34554 4.56057 1.45
      vertex -2.19007 4.67089 1.45
    endloop
  endfacet
  facet normal -0.5787 0.815541 0
    outer loop
      vertex -2.34554 4.56057 1.45
      vertex -2.19007 4.67089 0
      vertex -2.34554 4.56057 0
    endloop
  endfacet
  facet normal 0.382659 0.92389 -0
    outer loop
      vertex -3.81147 4.3954 0
      vertex -3.9876 4.46835 1.45
      vertex -3.81147 4.3954 1.45
    endloop
  endfacet
  facet normal 0.382659 0.92389 0
    outer loop
      vertex -3.9876 4.46835 1.45
      vertex -3.81147 4.3954 0
      vertex -3.9876 4.46835 0
    endloop
  endfacet
  facet normal 0.48374 0.875212 -0
    outer loop
      vertex -3.9876 4.46835 0
      vertex -4.15445 4.56057 1.45
      vertex -3.9876 4.46835 1.45
    endloop
  endfacet
  facet normal 0.48374 0.875212 0
    outer loop
      vertex -4.15445 4.56057 1.45
      vertex -3.9876 4.46835 0
      vertex -4.15445 4.56057 0
    endloop
  endfacet
  facet normal -0.875273 -0.483629 0
    outer loop
      vertex -1.71835 14.7376 0
      vertex -1.81057 14.9045 1.45
      vertex -1.81057 14.9045 0
    endloop
  endfacet
  facet normal -0.875273 -0.483629 0
    outer loop
      vertex -1.81057 14.9045 1.45
      vertex -1.71835 14.7376 0
      vertex -1.71835 14.7376 1.45
    endloop
  endfacet
  facet normal -0.276965 -0.96088 0
    outer loop
      vertex -2.87171 15.6574 0
      vertex -2.68853 15.6046 1.45
      vertex -2.87171 15.6574 1.45
    endloop
  endfacet
  facet normal -0.276965 -0.96088 -0
    outer loop
      vertex -2.68853 15.6046 1.45
      vertex -2.87171 15.6574 0
      vertex -2.68853 15.6046 0
    endloop
  endfacet
  facet normal 0.382883 -0.923797 0
    outer loop
      vertex -3.9876 15.5316 0
      vertex -3.81147 15.6046 1.45
      vertex -3.9876 15.5316 1.45
    endloop
  endfacet
  facet normal 0.382883 -0.923797 0
    outer loop
      vertex -3.81147 15.6046 1.45
      vertex -3.9876 15.5316 0
      vertex -3.81147 15.6046 0
    endloop
  endfacet
  facet normal 0.960916 -0.27684 0
    outer loop
      vertex -4.90738 14.3783 1.45
      vertex -4.8546 14.5615 0
      vertex -4.8546 14.5615 1.45
    endloop
  endfacet
  facet normal 0.960916 -0.27684 0
    outer loop
      vertex -4.8546 14.5615 0
      vertex -4.90738 14.3783 1.45
      vertex -4.90738 14.3783 0
    endloop
  endfacet
  facet normal -0.985882 0.167443 0
    outer loop
      vertex -1.59262 13.6217 0
      vertex -1.56069 13.8097 1.45
      vertex -1.56069 13.8097 0
    endloop
  endfacet
  facet normal -0.985882 0.167443 0
    outer loop
      vertex -1.56069 13.8097 1.45
      vertex -1.59262 13.6217 0
      vertex -1.59262 13.6217 1.45
    endloop
  endfacet
  facet normal -0.985882 -0.167443 0
    outer loop
      vertex -1.56069 14.1903 0
      vertex -1.59262 14.3783 1.45
      vertex -1.59262 14.3783 0
    endloop
  endfacet
  facet normal -0.985882 -0.167443 0
    outer loop
      vertex -1.59262 14.3783 1.45
      vertex -1.56069 14.1903 0
      vertex -1.56069 14.1903 1.45
    endloop
  endfacet
  facet normal 0.0561266 -0.998424 0
    outer loop
      vertex -3.44034 15.6893 0
      vertex -3.25 15.7 1.45
      vertex -3.44034 15.6893 1.45
    endloop
  endfacet
  facet normal 0.0561266 -0.998424 0
    outer loop
      vertex -3.25 15.7 1.45
      vertex -3.44034 15.6893 0
      vertex -3.25 15.7 0
    endloop
  endfacet
  facet normal -0.483637 -0.875268 0
    outer loop
      vertex -2.5124 15.5316 0
      vertex -2.34554 15.4394 1.45
      vertex -2.5124 15.5316 1.45
    endloop
  endfacet
  facet normal -0.483637 -0.875268 -0
    outer loop
      vertex -2.34554 15.4394 1.45
      vertex -2.5124 15.5316 0
      vertex -2.34554 15.4394 0
    endloop
  endfacet
  facet normal 0.998426 0.056086 0
    outer loop
      vertex -4.93931 13.8097 1.45
      vertex -4.95 14 0
      vertex -4.95 14 1.45
    endloop
  endfacet
  facet normal 0.998426 0.056086 0
    outer loop
      vertex -4.95 14 0
      vertex -4.93931 13.8097 1.45
      vertex -4.93931 13.8097 0
    endloop
  endfacet
  facet normal 0.815418 -0.578873 0
    outer loop
      vertex -4.68943 14.9045 1.45
      vertex -4.57911 15.0599 0
      vertex -4.57911 15.0599 1.45
    endloop
  endfacet
  facet normal 0.815418 -0.578873 0
    outer loop
      vertex -4.57911 15.0599 0
      vertex -4.68943 14.9045 1.45
      vertex -4.68943 14.9045 0
    endloop
  endfacet
  facet normal 0.167333 -0.9859 0
    outer loop
      vertex -3.62829 15.6574 0
      vertex -3.44034 15.6893 1.45
      vertex -3.62829 15.6574 1.45
    endloop
  endfacet
  facet normal 0.167333 -0.9859 0
    outer loop
      vertex -3.44034 15.6893 1.45
      vertex -3.62829 15.6574 0
      vertex -3.44034 15.6893 0
    endloop
  endfacet
  facet normal -0.998426 -0.056086 0
    outer loop
      vertex -1.55 14 0
      vertex -1.56069 14.1903 1.45
      vertex -1.56069 14.1903 0
    endloop
  endfacet
  facet normal -0.998426 -0.056086 0
    outer loop
      vertex -1.56069 14.1903 1.45
      vertex -1.55 14 0
      vertex -1.55 14 1.45
    endloop
  endfacet
  facet normal -0.483637 0.875268 0
    outer loop
      vertex -2.34554 12.5606 0
      vertex -2.5124 12.4684 1.45
      vertex -2.34554 12.5606 1.45
    endloop
  endfacet
  facet normal -0.483637 0.875268 0
    outer loop
      vertex -2.5124 12.4684 1.45
      vertex -2.34554 12.5606 0
      vertex -2.5124 12.4684 0
    endloop
  endfacet
  facet normal 0.578605 0.815608 -0
    outer loop
      vertex -4.15445 12.5606 0
      vertex -4.30993 12.6709 1.45
      vertex -4.15445 12.5606 1.45
    endloop
  endfacet
  facet normal 0.578605 0.815608 0
    outer loop
      vertex -4.30993 12.6709 1.45
      vertex -4.15445 12.5606 0
      vertex -4.30993 12.6709 0
    endloop
  endfacet
  facet normal 0.875273 0.483629 0
    outer loop
      vertex -4.68943 13.0955 1.45
      vertex -4.78165 13.2624 0
      vertex -4.78165 13.2624 1.45
    endloop
  endfacet
  facet normal 0.875273 0.483629 0
    outer loop
      vertex -4.78165 13.2624 0
      vertex -4.68943 13.0955 1.45
      vertex -4.68943 13.0955 0
    endloop
  endfacet
  facet normal -0.815418 -0.578873 0
    outer loop
      vertex -1.81057 14.9045 0
      vertex -1.92089 15.0599 1.45
      vertex -1.92089 15.0599 0
    endloop
  endfacet
  facet normal -0.815418 -0.578873 0
    outer loop
      vertex -1.92089 15.0599 1.45
      vertex -1.81057 14.9045 0
      vertex -1.81057 14.9045 1.45
    endloop
  endfacet
  facet normal -0.66625 -0.745728 0
    outer loop
      vertex -2.19007 15.3291 0
      vertex -2.04792 15.2021 1.45
      vertex -2.19007 15.3291 1.45
    endloop
  endfacet
  facet normal -0.66625 -0.745728 -0
    outer loop
      vertex -2.04792 15.2021 1.45
      vertex -2.19007 15.3291 0
      vertex -2.04792 15.2021 0
    endloop
  endfacet
  facet normal -0.167333 -0.9859 0
    outer loop
      vertex -3.05966 15.6893 0
      vertex -2.87171 15.6574 1.45
      vertex -3.05966 15.6893 1.45
    endloop
  endfacet
  facet normal -0.167333 -0.9859 -0
    outer loop
      vertex -2.87171 15.6574 1.45
      vertex -3.05966 15.6893 0
      vertex -2.87171 15.6574 0
    endloop
  endfacet
  facet normal -0.0561266 -0.998424 0
    outer loop
      vertex -3.25 15.7 0
      vertex -3.05966 15.6893 1.45
      vertex -3.25 15.7 1.45
    endloop
  endfacet
  facet normal -0.0561266 -0.998424 -0
    outer loop
      vertex -3.05966 15.6893 1.45
      vertex -3.25 15.7 0
      vertex -3.05966 15.6893 0
    endloop
  endfacet
  facet normal -0.382883 -0.923797 0
    outer loop
      vertex -2.68853 15.6046 0
      vertex -2.5124 15.5316 1.45
      vertex -2.68853 15.6046 1.45
    endloop
  endfacet
  facet normal -0.382883 -0.923797 -0
    outer loop
      vertex -2.5124 15.5316 1.45
      vertex -2.68853 15.6046 0
      vertex -2.5124 15.5316 0
    endloop
  endfacet
  facet normal -0.57863 -0.81559 0
    outer loop
      vertex -2.34554 15.4394 0
      vertex -2.19007 15.3291 1.45
      vertex -2.34554 15.4394 1.45
    endloop
  endfacet
  facet normal -0.57863 -0.81559 -0
    outer loop
      vertex -2.19007 15.3291 1.45
      vertex -2.34554 15.4394 0
      vertex -2.19007 15.3291 0
    endloop
  endfacet
  facet normal 0.985882 -0.167443 0
    outer loop
      vertex -4.93931 14.1903 1.45
      vertex -4.90738 14.3783 0
      vertex -4.90738 14.3783 1.45
    endloop
  endfacet
  facet normal 0.985882 -0.167443 0
    outer loop
      vertex -4.90738 14.3783 0
      vertex -4.93931 14.1903 1.45
      vertex -4.93931 14.1903 0
    endloop
  endfacet
  facet normal 0.998426 -0.056086 0
    outer loop
      vertex -4.95 14 1.45
      vertex -4.93931 14.1903 0
      vertex -4.93931 14.1903 1.45
    endloop
  endfacet
  facet normal 0.998426 -0.056086 0
    outer loop
      vertex -4.93931 14.1903 0
      vertex -4.95 14 1.45
      vertex -4.95 14 0
    endloop
  endfacet
  facet normal 0.923867 -0.382715 0
    outer loop
      vertex -4.8546 14.5615 1.45
      vertex -4.78165 14.7376 0
      vertex -4.78165 14.7376 1.45
    endloop
  endfacet
  facet normal 0.923867 -0.382715 0
    outer loop
      vertex -4.78165 14.7376 0
      vertex -4.8546 14.5615 1.45
      vertex -4.8546 14.5615 0
    endloop
  endfacet
  facet normal 0.875273 -0.483629 0
    outer loop
      vertex -4.78165 14.7376 1.45
      vertex -4.68943 14.9045 0
      vertex -4.68943 14.9045 1.45
    endloop
  endfacet
  facet normal 0.875273 -0.483629 0
    outer loop
      vertex -4.68943 14.9045 0
      vertex -4.78165 14.7376 1.45
      vertex -4.78165 14.7376 0
    endloop
  endfacet
  facet normal 0.276965 -0.96088 0
    outer loop
      vertex -3.81147 15.6046 0
      vertex -3.62829 15.6574 1.45
      vertex -3.81147 15.6046 1.45
    endloop
  endfacet
  facet normal 0.276965 -0.96088 0
    outer loop
      vertex -3.62829 15.6574 1.45
      vertex -3.81147 15.6046 0
      vertex -3.62829 15.6574 0
    endloop
  endfacet
  facet normal 0.578605 -0.815608 0
    outer loop
      vertex -4.30993 15.3291 0
      vertex -4.15445 15.4394 1.45
      vertex -4.30993 15.3291 1.45
    endloop
  endfacet
  facet normal 0.578605 -0.815608 0
    outer loop
      vertex -4.15445 15.4394 1.45
      vertex -4.30993 15.3291 0
      vertex -4.15445 15.4394 0
    endloop
  endfacet
  facet normal 0.66625 -0.745728 0
    outer loop
      vertex -4.45208 15.2021 0
      vertex -4.30993 15.3291 1.45
      vertex -4.45208 15.2021 1.45
    endloop
  endfacet
  facet normal 0.66625 -0.745728 0
    outer loop
      vertex -4.30993 15.3291 1.45
      vertex -4.45208 15.2021 0
      vertex -4.30993 15.3291 0
    endloop
  endfacet
  facet normal 0.48366 -0.875256 0
    outer loop
      vertex -4.15445 15.4394 0
      vertex -3.9876 15.5316 1.45
      vertex -4.15445 15.4394 1.45
    endloop
  endfacet
  facet normal 0.48366 -0.875256 0
    outer loop
      vertex -3.9876 15.5316 1.45
      vertex -4.15445 15.4394 0
      vertex -3.9876 15.5316 0
    endloop
  endfacet
  facet normal 0.745766 -0.666208 0
    outer loop
      vertex -4.57911 15.0599 1.45
      vertex -4.45208 15.2021 0
      vertex -4.45208 15.2021 1.45
    endloop
  endfacet
  facet normal 0.745766 -0.666208 0
    outer loop
      vertex -4.45208 15.2021 0
      vertex -4.57911 15.0599 1.45
      vertex -4.57911 15.0599 0
    endloop
  endfacet
  facet normal -0.998426 0.056086 0
    outer loop
      vertex -1.56069 13.8097 0
      vertex -1.55 14 1.45
      vertex -1.55 14 0
    endloop
  endfacet
  facet normal -0.998426 0.056086 0
    outer loop
      vertex -1.55 14 1.45
      vertex -1.56069 13.8097 0
      vertex -1.56069 13.8097 1.45
    endloop
  endfacet
  facet normal -0.0561266 0.998424 0
    outer loop
      vertex -3.05966 12.3107 0
      vertex -3.25 12.3 1.45
      vertex -3.05966 12.3107 1.45
    endloop
  endfacet
  facet normal -0.0561266 0.998424 0
    outer loop
      vertex -3.25 12.3 1.45
      vertex -3.05966 12.3107 0
      vertex -3.25 12.3 0
    endloop
  endfacet
  facet normal 0.985882 0.167443 0
    outer loop
      vertex -4.90738 13.6217 1.45
      vertex -4.93931 13.8097 0
      vertex -4.93931 13.8097 1.45
    endloop
  endfacet
  facet normal 0.985882 0.167443 0
    outer loop
      vertex -4.93931 13.8097 0
      vertex -4.90738 13.6217 1.45
      vertex -4.90738 13.6217 0
    endloop
  endfacet
  facet normal 0.745766 0.666208 0
    outer loop
      vertex -4.45208 12.7979 1.45
      vertex -4.57911 12.9401 0
      vertex -4.57911 12.9401 1.45
    endloop
  endfacet
  facet normal 0.745766 0.666208 0
    outer loop
      vertex -4.57911 12.9401 0
      vertex -4.45208 12.7979 1.45
      vertex -4.45208 12.7979 0
    endloop
  endfacet
  facet normal -0.167333 0.9859 0
    outer loop
      vertex -2.87171 12.3426 0
      vertex -3.05966 12.3107 1.45
      vertex -2.87171 12.3426 1.45
    endloop
  endfacet
  facet normal -0.167333 0.9859 0
    outer loop
      vertex -3.05966 12.3107 1.45
      vertex -2.87171 12.3426 0
      vertex -3.05966 12.3107 0
    endloop
  endfacet
  facet normal -0.923867 -0.382715 0
    outer loop
      vertex -1.6454 14.5615 0
      vertex -1.71835 14.7376 1.45
      vertex -1.71835 14.7376 0
    endloop
  endfacet
  facet normal -0.923867 -0.382715 0
    outer loop
      vertex -1.71835 14.7376 1.45
      vertex -1.6454 14.5615 0
      vertex -1.6454 14.5615 1.45
    endloop
  endfacet
  facet normal -0.960916 -0.27684 0
    outer loop
      vertex -1.59262 14.3783 0
      vertex -1.6454 14.5615 1.45
      vertex -1.6454 14.5615 0
    endloop
  endfacet
  facet normal -0.960916 -0.27684 0
    outer loop
      vertex -1.6454 14.5615 1.45
      vertex -1.59262 14.3783 0
      vertex -1.59262 14.3783 1.45
    endloop
  endfacet
  facet normal -0.745766 -0.666208 0
    outer loop
      vertex -1.92089 15.0599 0
      vertex -2.04792 15.2021 1.45
      vertex -2.04792 15.2021 0
    endloop
  endfacet
  facet normal -0.745766 -0.666208 0
    outer loop
      vertex -2.04792 15.2021 1.45
      vertex -1.92089 15.0599 0
      vertex -1.92089 15.0599 1.45
    endloop
  endfacet
  facet normal -0.923867 0.382715 0
    outer loop
      vertex -1.71835 13.2624 0
      vertex -1.6454 13.4385 1.45
      vertex -1.6454 13.4385 0
    endloop
  endfacet
  facet normal -0.923867 0.382715 0
    outer loop
      vertex -1.6454 13.4385 1.45
      vertex -1.71835 13.2624 0
      vertex -1.71835 13.2624 1.45
    endloop
  endfacet
  facet normal -0.960916 0.27684 0
    outer loop
      vertex -1.6454 13.4385 0
      vertex -1.59262 13.6217 1.45
      vertex -1.59262 13.6217 0
    endloop
  endfacet
  facet normal -0.960916 0.27684 0
    outer loop
      vertex -1.59262 13.6217 1.45
      vertex -1.6454 13.4385 0
      vertex -1.6454 13.4385 1.45
    endloop
  endfacet
  facet normal -0.815418 0.578873 0
    outer loop
      vertex -1.92089 12.9401 0
      vertex -1.81057 13.0955 1.45
      vertex -1.81057 13.0955 0
    endloop
  endfacet
  facet normal -0.815418 0.578873 0
    outer loop
      vertex -1.81057 13.0955 1.45
      vertex -1.92089 12.9401 0
      vertex -1.92089 12.9401 1.45
    endloop
  endfacet
  facet normal -0.875273 0.483629 0
    outer loop
      vertex -1.81057 13.0955 0
      vertex -1.71835 13.2624 1.45
      vertex -1.71835 13.2624 0
    endloop
  endfacet
  facet normal -0.875273 0.483629 0
    outer loop
      vertex -1.71835 13.2624 1.45
      vertex -1.81057 13.0955 0
      vertex -1.81057 13.0955 1.45
    endloop
  endfacet
  facet normal 0.48366 0.875256 -0
    outer loop
      vertex -3.9876 12.4684 0
      vertex -4.15445 12.5606 1.45
      vertex -3.9876 12.4684 1.45
    endloop
  endfacet
  facet normal 0.48366 0.875256 0
    outer loop
      vertex -4.15445 12.5606 1.45
      vertex -3.9876 12.4684 0
      vertex -4.15445 12.5606 0
    endloop
  endfacet
  facet normal 0.167333 0.9859 -0
    outer loop
      vertex -3.44034 12.3107 0
      vertex -3.62829 12.3426 1.45
      vertex -3.44034 12.3107 1.45
    endloop
  endfacet
  facet normal 0.167333 0.9859 0
    outer loop
      vertex -3.62829 12.3426 1.45
      vertex -3.44034 12.3107 0
      vertex -3.62829 12.3426 0
    endloop
  endfacet
  facet normal 0.923867 0.382715 0
    outer loop
      vertex -4.78165 13.2624 1.45
      vertex -4.8546 13.4385 0
      vertex -4.8546 13.4385 1.45
    endloop
  endfacet
  facet normal 0.923867 0.382715 0
    outer loop
      vertex -4.8546 13.4385 0
      vertex -4.78165 13.2624 1.45
      vertex -4.78165 13.2624 0
    endloop
  endfacet
  facet normal 0.960916 0.27684 0
    outer loop
      vertex -4.8546 13.4385 1.45
      vertex -4.90738 13.6217 0
      vertex -4.90738 13.6217 1.45
    endloop
  endfacet
  facet normal 0.960916 0.27684 0
    outer loop
      vertex -4.90738 13.6217 0
      vertex -4.8546 13.4385 1.45
      vertex -4.8546 13.4385 0
    endloop
  endfacet
  facet normal 0.66625 0.745728 -0
    outer loop
      vertex -4.30993 12.6709 0
      vertex -4.45208 12.7979 1.45
      vertex -4.30993 12.6709 1.45
    endloop
  endfacet
  facet normal 0.66625 0.745728 0
    outer loop
      vertex -4.45208 12.7979 1.45
      vertex -4.30993 12.6709 0
      vertex -4.45208 12.7979 0
    endloop
  endfacet
  facet normal -0.382883 0.923797 0
    outer loop
      vertex -2.5124 12.4684 0
      vertex -2.68853 12.3954 1.45
      vertex -2.5124 12.4684 1.45
    endloop
  endfacet
  facet normal -0.382883 0.923797 0
    outer loop
      vertex -2.68853 12.3954 1.45
      vertex -2.5124 12.4684 0
      vertex -2.68853 12.3954 0
    endloop
  endfacet
  facet normal -0.276965 0.96088 0
    outer loop
      vertex -2.68853 12.3954 0
      vertex -2.87171 12.3426 1.45
      vertex -2.68853 12.3954 1.45
    endloop
  endfacet
  facet normal -0.276965 0.96088 0
    outer loop
      vertex -2.87171 12.3426 1.45
      vertex -2.68853 12.3954 0
      vertex -2.87171 12.3426 0
    endloop
  endfacet
  facet normal -0.66625 0.745728 0
    outer loop
      vertex -2.04792 12.7979 0
      vertex -2.19007 12.6709 1.45
      vertex -2.04792 12.7979 1.45
    endloop
  endfacet
  facet normal -0.66625 0.745728 0
    outer loop
      vertex -2.19007 12.6709 1.45
      vertex -2.04792 12.7979 0
      vertex -2.19007 12.6709 0
    endloop
  endfacet
  facet normal 0.815418 0.578873 0
    outer loop
      vertex -4.57911 12.9401 1.45
      vertex -4.68943 13.0955 0
      vertex -4.68943 13.0955 1.45
    endloop
  endfacet
  facet normal 0.815418 0.578873 0
    outer loop
      vertex -4.68943 13.0955 0
      vertex -4.57911 12.9401 1.45
      vertex -4.57911 12.9401 0
    endloop
  endfacet
  facet normal -0.745766 0.666208 0
    outer loop
      vertex -2.04792 12.7979 0
      vertex -1.92089 12.9401 1.45
      vertex -1.92089 12.9401 0
    endloop
  endfacet
  facet normal -0.745766 0.666208 0
    outer loop
      vertex -1.92089 12.9401 1.45
      vertex -2.04792 12.7979 0
      vertex -2.04792 12.7979 1.45
    endloop
  endfacet
  facet normal -0.57863 0.81559 0
    outer loop
      vertex -2.19007 12.6709 0
      vertex -2.34554 12.5606 1.45
      vertex -2.19007 12.6709 1.45
    endloop
  endfacet
  facet normal -0.57863 0.81559 0
    outer loop
      vertex -2.34554 12.5606 1.45
      vertex -2.19007 12.6709 0
      vertex -2.34554 12.5606 0
    endloop
  endfacet
  facet normal 0.276965 0.96088 -0
    outer loop
      vertex -3.62829 12.3426 0
      vertex -3.81147 12.3954 1.45
      vertex -3.62829 12.3426 1.45
    endloop
  endfacet
  facet normal 0.276965 0.96088 0
    outer loop
      vertex -3.81147 12.3954 1.45
      vertex -3.62829 12.3426 0
      vertex -3.81147 12.3954 0
    endloop
  endfacet
  facet normal 0.0561266 0.998424 -0
    outer loop
      vertex -3.25 12.3 0
      vertex -3.44034 12.3107 1.45
      vertex -3.25 12.3 1.45
    endloop
  endfacet
  facet normal 0.0561266 0.998424 0
    outer loop
      vertex -3.44034 12.3107 1.45
      vertex -3.25 12.3 0
      vertex -3.44034 12.3107 0
    endloop
  endfacet
  facet normal 0.382883 0.923797 -0
    outer loop
      vertex -3.81147 12.3954 0
      vertex -3.9876 12.4684 1.45
      vertex -3.81147 12.3954 1.45
    endloop
  endfacet
  facet normal 0.382883 0.923797 0
    outer loop
      vertex -3.9876 12.4684 1.45
      vertex -3.81147 12.3954 0
      vertex -3.9876 12.4684 0
    endloop
  endfacet
  facet normal -1 0 0
    outer loop
      vertex -26.3 3.2 0
      vertex -26.3 22.3 1.45
      vertex -26.3 22.3 0
    endloop
  endfacet
  facet normal -1 -0 0
    outer loop
      vertex -26.3 22.3 1.45
      vertex -26.3 3.2 0
      vertex -26.3 3.2 1.45
    endloop
  endfacet
  facet normal -0 0 1
    outer loop
      vertex -1.56069 6.19034 1.45
      vertex -1.2 3.2 1.45
      vertex -1.56069 13.8097 1.45
    endloop
  endfacet
  facet normal 0 0 1
    outer loop
      vertex -1.2 3.2 1.45
      vertex -1.56069 6.19034 1.45
      vertex -1.55 6 1.45
    endloop
  endfacet
  facet normal -0 0 1
    outer loop
      vertex -1.59262 13.6217 1.45
      vertex -1.56069 6.19034 1.45
      vertex -1.56069 13.8097 1.45
    endloop
  endfacet
  facet normal 0 0 1
    outer loop
      vertex -1.59262 13.6217 1.45
      vertex -1.59262 6.37829 1.45
      vertex -1.56069 6.19034 1.45
    endloop
  endfacet
  facet normal -0 0 1
    outer loop
      vertex -1.6454 13.4385 1.45
      vertex -1.59262 6.37829 1.45
      vertex -1.59262 13.6217 1.45
    endloop
  endfacet
  facet normal 0 0 1
    outer loop
      vertex -1.6454 13.4385 1.45
      vertex -1.6454 6.56147 1.45
      vertex -1.59262 6.37829 1.45
    endloop
  endfacet
  facet normal -0 0 1
    outer loop
      vertex -1.71835 13.2624 1.45
      vertex -1.6454 6.56147 1.45
      vertex -1.6454 13.4385 1.45
    endloop
  endfacet
  facet normal 0 0 1
    outer loop
      vertex -1.71835 13.2624 1.45
      vertex -1.71835 6.7376 1.45
      vertex -1.6454 6.56147 1.45
    endloop
  endfacet
  facet normal -0 0 1
    outer loop
      vertex -1.81057 13.0955 1.45
      vertex -1.71835 6.7376 1.45
      vertex -1.71835 13.2624 1.45
    endloop
  endfacet
  facet normal 0 0 1
    outer loop
      vertex -1.81057 13.0955 1.45
      vertex -1.81057 6.90445 1.45
      vertex -1.71835 6.7376 1.45
    endloop
  endfacet
  facet normal -0 0 1
    outer loop
      vertex -1.92089 12.9401 1.45
      vertex -1.81057 6.90445 1.45
      vertex -1.81057 13.0955 1.45
    endloop
  endfacet
  facet normal 0 0 1
    outer loop
      vertex -1.92089 12.9401 1.45
      vertex -1.92089 7.05993 1.45
      vertex -1.81057 6.90445 1.45
    endloop
  endfacet
  facet normal -0 0 1
    outer loop
      vertex -2.04792 12.7979 1.45
      vertex -1.92089 7.05993 1.45
      vertex -1.92089 12.9401 1.45
    endloop
  endfacet
  facet normal 0 0 1
    outer loop
      vertex -2.04792 12.7979 1.45
      vertex -2.04792 7.20208 1.45
      vertex -1.92089 7.05993 1.45
    endloop
  endfacet
  facet normal -0 0 1
    outer loop
      vertex -2.19007 12.6709 1.45
      vertex -2.04792 7.20208 1.45
      vertex -2.04792 12.7979 1.45
    endloop
  endfacet
  facet normal 0 0 1
    outer loop
      vertex -2.19007 12.6709 1.45
      vertex -2.19007 7.32911 1.45
      vertex -2.04792 7.20208 1.45
    endloop
  endfacet
  facet normal -0 0 1
    outer loop
      vertex -2.34554 12.5606 1.45
      vertex -2.19007 7.32911 1.45
      vertex -2.19007 12.6709 1.45
    endloop
  endfacet
  facet normal 0 0 1
    outer loop
      vertex -2.34554 12.5606 1.45
      vertex -2.34554 7.43943 1.45
      vertex -2.19007 7.32911 1.45
    endloop
  endfacet
  facet normal -0 0 1
    outer loop
      vertex -2.5124 12.4684 1.45
      vertex -2.34554 7.43943 1.45
      vertex -2.34554 12.5606 1.45
    endloop
  endfacet
  facet normal 0 0 1
    outer loop
      vertex -2.5124 12.4684 1.45
      vertex -2.5124 7.53165 1.45
      vertex -2.34554 7.43943 1.45
    endloop
  endfacet
  facet normal -0 0 1
    outer loop
      vertex -2.68853 12.3954 1.45
      vertex -2.5124 7.53165 1.45
      vertex -2.5124 12.4684 1.45
    endloop
  endfacet
  facet normal 0 0 1
    outer loop
      vertex -2.68853 12.3954 1.45
      vertex -2.68853 7.6046 1.45
      vertex -2.5124 7.53165 1.45
    endloop
  endfacet
  facet normal -0 0 1
    outer loop
      vertex -2.87171 12.3426 1.45
      vertex -2.68853 7.6046 1.45
      vertex -2.68853 12.3954 1.45
    endloop
  endfacet
  facet normal 0 0 1
    outer loop
      vertex -2.87171 12.3426 1.45
      vertex -2.87171 7.65738 1.45
      vertex -2.68853 7.6046 1.45
    endloop
  endfacet
  facet normal -0 0 1
    outer loop
      vertex -3.05966 12.3107 1.45
      vertex -2.87171 7.65738 1.45
      vertex -2.87171 12.3426 1.45
    endloop
  endfacet
  facet normal 0 0 1
    outer loop
      vertex -3.05966 12.3107 1.45
      vertex -3.05966 7.68931 1.45
      vertex -2.87171 7.65738 1.45
    endloop
  endfacet
  facet normal -0 0 1
    outer loop
      vertex -3.25 12.3 1.45
      vertex -3.05966 7.68931 1.45
      vertex -3.05966 12.3107 1.45
    endloop
  endfacet
  facet normal 0 0 1
    outer loop
      vertex -3.25 12.3 1.45
      vertex -3.25 7.7 1.45
      vertex -3.05966 7.68931 1.45
    endloop
  endfacet
  facet normal 0 0 1
    outer loop
      vertex -3.44034 12.3107 1.45
      vertex -3.25 7.7 1.45
      vertex -3.25 12.3 1.45
    endloop
  endfacet
  facet normal 0 0 1
    outer loop
      vertex -3.44034 12.3107 1.45
      vertex -3.44034 7.68931 1.45
      vertex -3.25 7.7 1.45
    endloop
  endfacet
  facet normal 0 0 1
    outer loop
      vertex -3.62829 12.3426 1.45
      vertex -3.44034 7.68931 1.45
      vertex -3.44034 12.3107 1.45
    endloop
  endfacet
  facet normal 0 0 1
    outer loop
      vertex -3.62829 12.3426 1.45
      vertex -3.62829 7.65738 1.45
      vertex -3.44034 7.68931 1.45
    endloop
  endfacet
  facet normal 0 0 1
    outer loop
      vertex -3.81147 12.3954 1.45
      vertex -3.62829 7.65738 1.45
      vertex -3.62829 12.3426 1.45
    endloop
  endfacet
  facet normal 0 0 1
    outer loop
      vertex -3.81147 12.3954 1.45
      vertex -3.81147 7.6046 1.45
      vertex -3.62829 7.65738 1.45
    endloop
  endfacet
  facet normal 0 0 1
    outer loop
      vertex -3.9876 12.4684 1.45
      vertex -3.81147 7.6046 1.45
      vertex -3.81147 12.3954 1.45
    endloop
  endfacet
  facet normal 0 0 1
    outer loop
      vertex -3.9876 12.4684 1.45
      vertex -3.9876 7.53165 1.45
      vertex -3.81147 7.6046 1.45
    endloop
  endfacet
  facet normal 0 0 1
    outer loop
      vertex -4.15445 12.5606 1.45
      vertex -3.9876 7.53165 1.45
      vertex -3.9876 12.4684 1.45
    endloop
  endfacet
  facet normal 0 0 1
    outer loop
      vertex -4.15445 12.5606 1.45
      vertex -4.15445 7.43943 1.45
      vertex -3.9876 7.53165 1.45
    endloop
  endfacet
  facet normal 0 0 1
    outer loop
      vertex -4.30993 12.6709 1.45
      vertex -4.15445 7.43943 1.45
      vertex -4.15445 12.5606 1.45
    endloop
  endfacet
  facet normal 0 0 1
    outer loop
      vertex -4.30993 12.6709 1.45
      vertex -4.30993 7.32911 1.45
      vertex -4.15445 7.43943 1.45
    endloop
  endfacet
  facet normal 0 0 1
    outer loop
      vertex -4.45208 12.7979 1.45
      vertex -4.30993 7.32911 1.45
      vertex -4.30993 12.6709 1.45
    endloop
  endfacet
  facet normal 0 0 1
    outer loop
      vertex -4.45208 12.7979 1.45
      vertex -4.45208 7.20208 1.45
      vertex -4.30993 7.32911 1.45
    endloop
  endfacet
  facet normal 0 0 1
    outer loop
      vertex -4.57911 12.9401 1.45
      vertex -4.45208 7.20208 1.45
      vertex -4.45208 12.7979 1.45
    endloop
  endfacet
  facet normal 0 0 1
    outer loop
      vertex -4.57911 12.9401 1.45
      vertex -4.57911 7.05993 1.45
      vertex -4.45208 7.20208 1.45
    endloop
  endfacet
  facet normal 0 0 1
    outer loop
      vertex -4.68943 13.0955 1.45
      vertex -4.57911 7.05993 1.45
      vertex -4.57911 12.9401 1.45
    endloop
  endfacet
  facet normal 0 0 1
    outer loop
      vertex -4.68943 13.0955 1.45
      vertex -4.68943 6.90445 1.45
      vertex -4.57911 7.05993 1.45
    endloop
  endfacet
  facet normal 0 0 1
    outer loop
      vertex -4.78165 13.2624 1.45
      vertex -4.68943 6.90445 1.45
      vertex -4.68943 13.0955 1.45
    endloop
  endfacet
  facet normal 0 0 1
    outer loop
      vertex -4.78165 13.2624 1.45
      vertex -4.78165 6.7376 1.45
      vertex -4.68943 6.90445 1.45
    endloop
  endfacet
  facet normal 0 0 1
    outer loop
      vertex -4.8546 13.4385 1.45
      vertex -4.78165 6.7376 1.45
      vertex -4.78165 13.2624 1.45
    endloop
  endfacet
  facet normal 0 0 1
    outer loop
      vertex -4.8546 13.4385 1.45
      vertex -4.8546 6.56147 1.45
      vertex -4.78165 6.7376 1.45
    endloop
  endfacet
  facet normal 0 0 1
    outer loop
      vertex -26.3 3.2 1.45
      vertex -4.8546 13.4385 1.45
      vertex -4.90738 13.6217 1.45
    endloop
  endfacet
  facet normal 0 0 1
    outer loop
      vertex -4.8546 13.4385 1.45
      vertex -26.3 3.2 1.45
      vertex -4.8546 6.56147 1.45
    endloop
  endfacet
  facet normal 0 0 1
    outer loop
      vertex -26.3 3.2 1.45
      vertex -4.90738 13.6217 1.45
      vertex -4.93931 13.8097 1.45
    endloop
  endfacet
  facet normal 0 0 1
    outer loop
      vertex -4.8546 6.56147 1.45
      vertex -26.3 3.2 1.45
      vertex -4.90738 6.37829 1.45
    endloop
  endfacet
  facet normal 0 0 1
    outer loop
      vertex -26.3 22.3 1.45
      vertex -4.93931 13.8097 1.45
      vertex -4.95 14 1.45
    endloop
  endfacet
  facet normal 0 0 1
    outer loop
      vertex -4.90738 6.37829 1.45
      vertex -26.3 3.2 1.45
      vertex -4.93931 6.19034 1.45
    endloop
  endfacet
  facet normal 0 0 1
    outer loop
      vertex -1.2 22.3 1.45
      vertex -1.55 14 1.45
      vertex -1.2 3.2 1.45
    endloop
  endfacet
  facet normal 0 0 1
    outer loop
      vertex -1.2 22.3 1.45
      vertex -1.56069 14.1903 1.45
      vertex -1.55 14 1.45
    endloop
  endfacet
  facet normal 0 0 1
    outer loop
      vertex -1.2 22.3 1.45
      vertex -1.59262 14.3783 1.45
      vertex -1.56069 14.1903 1.45
    endloop
  endfacet
  facet normal 0 0 1
    outer loop
      vertex -1.2 22.3 1.45
      vertex -1.6454 14.5615 1.45
      vertex -1.59262 14.3783 1.45
    endloop
  endfacet
  facet normal 0 0 1
    outer loop
      vertex -1.2 22.3 1.45
      vertex -1.71835 14.7376 1.45
      vertex -1.6454 14.5615 1.45
    endloop
  endfacet
  facet normal 0 0 1
    outer loop
      vertex -1.2 22.3 1.45
      vertex -1.81057 14.9045 1.45
      vertex -1.71835 14.7376 1.45
    endloop
  endfacet
  facet normal 0 0 1
    outer loop
      vertex -1.2 22.3 1.45
      vertex -1.92089 15.0599 1.45
      vertex -1.81057 14.9045 1.45
    endloop
  endfacet
  facet normal 0 0 1
    outer loop
      vertex -1.2 22.3 1.45
      vertex -2.04792 15.2021 1.45
      vertex -1.92089 15.0599 1.45
    endloop
  endfacet
  facet normal 0 0 1
    outer loop
      vertex -1.2 22.3 1.45
      vertex -2.19007 15.3291 1.45
      vertex -2.04792 15.2021 1.45
    endloop
  endfacet
  facet normal 0 0 1
    outer loop
      vertex -1.2 22.3 1.45
      vertex -2.34554 15.4394 1.45
      vertex -2.19007 15.3291 1.45
    endloop
  endfacet
  facet normal 0 0 1
    outer loop
      vertex -1.2 22.3 1.45
      vertex -2.5124 15.5316 1.45
      vertex -2.34554 15.4394 1.45
    endloop
  endfacet
  facet normal 0 0 1
    outer loop
      vertex -1.2 22.3 1.45
      vertex -2.68853 15.6046 1.45
      vertex -2.5124 15.5316 1.45
    endloop
  endfacet
  facet normal 0 0 1
    outer loop
      vertex -1.2 22.3 1.45
      vertex -2.87171 15.6574 1.45
      vertex -2.68853 15.6046 1.45
    endloop
  endfacet
  facet normal 0 0 1
    outer loop
      vertex -1.2 22.3 1.45
      vertex -3.05966 15.6893 1.45
      vertex -2.87171 15.6574 1.45
    endloop
  endfacet
  facet normal 0 0 1
    outer loop
      vertex -1.2 22.3 1.45
      vertex -3.25 15.7 1.45
      vertex -3.05966 15.6893 1.45
    endloop
  endfacet
  facet normal 0 0 1
    outer loop
      vertex -1.2 22.3 1.45
      vertex -3.44034 15.6893 1.45
      vertex -3.25 15.7 1.45
    endloop
  endfacet
  facet normal 0 0 1
    outer loop
      vertex -1.2 22.3 1.45
      vertex -3.62829 15.6574 1.45
      vertex -3.44034 15.6893 1.45
    endloop
  endfacet
  facet normal 0 0 1
    outer loop
      vertex -1.2 22.3 1.45
      vertex -3.81147 15.6046 1.45
      vertex -3.62829 15.6574 1.45
    endloop
  endfacet
  facet normal 0 0 1
    outer loop
      vertex -1.2 22.3 1.45
      vertex -3.9876 15.5316 1.45
      vertex -3.81147 15.6046 1.45
    endloop
  endfacet
  facet normal 0 0 1
    outer loop
      vertex -1.2 22.3 1.45
      vertex -4.15445 15.4394 1.45
      vertex -3.9876 15.5316 1.45
    endloop
  endfacet
  facet normal 0 0 1
    outer loop
      vertex -1.2 22.3 1.45
      vertex -4.30993 15.3291 1.45
      vertex -4.15445 15.4394 1.45
    endloop
  endfacet
  facet normal 0 0 1
    outer loop
      vertex -1.2 22.3 1.45
      vertex -4.45208 15.2021 1.45
      vertex -4.30993 15.3291 1.45
    endloop
  endfacet
  facet normal -0 0 1
    outer loop
      vertex -26.3 22.3 1.45
      vertex -4.45208 15.2021 1.45
      vertex -1.2 22.3 1.45
    endloop
  endfacet
  facet normal 0 0 1
    outer loop
      vertex -4.45208 15.2021 1.45
      vertex -26.3 22.3 1.45
      vertex -4.57911 15.0599 1.45
    endloop
  endfacet
  facet normal 0 0 1
    outer loop
      vertex -4.57911 15.0599 1.45
      vertex -26.3 22.3 1.45
      vertex -4.68943 14.9045 1.45
    endloop
  endfacet
  facet normal 0 0 1
    outer loop
      vertex -4.93931 13.8097 1.45
      vertex -26.3 22.3 1.45
      vertex -26.3 3.2 1.45
    endloop
  endfacet
  facet normal 0 0 1
    outer loop
      vertex -4.93931 14.1903 1.45
      vertex -26.3 22.3 1.45
      vertex -4.95 14 1.45
    endloop
  endfacet
  facet normal 0 0 1
    outer loop
      vertex -4.90738 14.3783 1.45
      vertex -26.3 22.3 1.45
      vertex -4.93931 14.1903 1.45
    endloop
  endfacet
  facet normal 0 0 1
    outer loop
      vertex -4.8546 14.5615 1.45
      vertex -26.3 22.3 1.45
      vertex -4.90738 14.3783 1.45
    endloop
  endfacet
  facet normal 0 0 1
    outer loop
      vertex -4.78165 14.7376 1.45
      vertex -26.3 22.3 1.45
      vertex -4.8546 14.5615 1.45
    endloop
  endfacet
  facet normal 0 0 1
    outer loop
      vertex -4.68943 14.9045 1.45
      vertex -26.3 22.3 1.45
      vertex -4.78165 14.7376 1.45
    endloop
  endfacet
  facet normal -0 0 1
    outer loop
      vertex -1.56069 13.8097 1.45
      vertex -1.2 3.2 1.45
      vertex -1.55 14 1.45
    endloop
  endfacet
  facet normal -0 0 1
    outer loop
      vertex -1.56069 5.80966 1.45
      vertex -1.2 3.2 1.45
      vertex -1.55 6 1.45
    endloop
  endfacet
  facet normal -0 0 1
    outer loop
      vertex -1.59262 5.62171 1.45
      vertex -1.2 3.2 1.45
      vertex -1.56069 5.80966 1.45
    endloop
  endfacet
  facet normal -0 0 1
    outer loop
      vertex -1.6454 5.43853 1.45
      vertex -1.2 3.2 1.45
      vertex -1.59262 5.62171 1.45
    endloop
  endfacet
  facet normal -0 0 1
    outer loop
      vertex -1.71835 5.2624 1.45
      vertex -1.2 3.2 1.45
      vertex -1.6454 5.43853 1.45
    endloop
  endfacet
  facet normal -0 0 1
    outer loop
      vertex -1.81057 5.09554 1.45
      vertex -1.2 3.2 1.45
      vertex -1.71835 5.2624 1.45
    endloop
  endfacet
  facet normal -0 0 1
    outer loop
      vertex -1.92089 4.94007 1.45
      vertex -1.2 3.2 1.45
      vertex -1.81057 5.09554 1.45
    endloop
  endfacet
  facet normal -0 0 1
    outer loop
      vertex -2.04792 4.79792 1.45
      vertex -1.2 3.2 1.45
      vertex -1.92089 4.94007 1.45
    endloop
  endfacet
  facet normal -0 0 1
    outer loop
      vertex -2.19007 4.67089 1.45
      vertex -1.2 3.2 1.45
      vertex -2.04792 4.79792 1.45
    endloop
  endfacet
  facet normal -0 0 1
    outer loop
      vertex -2.34554 4.56057 1.45
      vertex -1.2 3.2 1.45
      vertex -2.19007 4.67089 1.45
    endloop
  endfacet
  facet normal -0 0 1
    outer loop
      vertex -2.5124 4.46835 1.45
      vertex -1.2 3.2 1.45
      vertex -2.34554 4.56057 1.45
    endloop
  endfacet
  facet normal -0 0 1
    outer loop
      vertex -2.68853 4.3954 1.45
      vertex -1.2 3.2 1.45
      vertex -2.5124 4.46835 1.45
    endloop
  endfacet
  facet normal -0 0 1
    outer loop
      vertex -2.87171 4.34262 1.45
      vertex -1.2 3.2 1.45
      vertex -2.68853 4.3954 1.45
    endloop
  endfacet
  facet normal -0 0 1
    outer loop
      vertex -3.05966 4.31069 1.45
      vertex -1.2 3.2 1.45
      vertex -2.87171 4.34262 1.45
    endloop
  endfacet
  facet normal -0 0 1
    outer loop
      vertex -3.25 4.3 1.45
      vertex -1.2 3.2 1.45
      vertex -3.05966 4.31069 1.45
    endloop
  endfacet
  facet normal 0 0 1
    outer loop
      vertex -3.44034 4.31069 1.45
      vertex -1.2 3.2 1.45
      vertex -3.25 4.3 1.45
    endloop
  endfacet
  facet normal 0 0 1
    outer loop
      vertex -3.62829 4.34262 1.45
      vertex -1.2 3.2 1.45
      vertex -3.44034 4.31069 1.45
    endloop
  endfacet
  facet normal 0 0 1
    outer loop
      vertex -3.81147 4.3954 1.45
      vertex -1.2 3.2 1.45
      vertex -3.62829 4.34262 1.45
    endloop
  endfacet
  facet normal 0 0 1
    outer loop
      vertex -26.3 3.2 1.45
      vertex -3.81147 4.3954 1.45
      vertex -3.9876 4.46835 1.45
    endloop
  endfacet
  facet normal 0 0 1
    outer loop
      vertex -4.93931 6.19034 1.45
      vertex -26.3 3.2 1.45
      vertex -4.95 6 1.45
    endloop
  endfacet
  facet normal 0 0 1
    outer loop
      vertex -4.95 6 1.45
      vertex -26.3 3.2 1.45
      vertex -4.93931 5.80966 1.45
    endloop
  endfacet
  facet normal 0 0 1
    outer loop
      vertex -4.93931 5.80966 1.45
      vertex -26.3 3.2 1.45
      vertex -4.90738 5.62171 1.45
    endloop
  endfacet
  facet normal 0 0 1
    outer loop
      vertex -4.90738 5.62171 1.45
      vertex -26.3 3.2 1.45
      vertex -4.8546 5.43853 1.45
    endloop
  endfacet
  facet normal 0 0 1
    outer loop
      vertex -4.8546 5.43853 1.45
      vertex -26.3 3.2 1.45
      vertex -4.78165 5.2624 1.45
    endloop
  endfacet
  facet normal 0 0 1
    outer loop
      vertex -4.78165 5.2624 1.45
      vertex -26.3 3.2 1.45
      vertex -4.68943 5.09554 1.45
    endloop
  endfacet
  facet normal 0 0 1
    outer loop
      vertex -4.68943 5.09554 1.45
      vertex -26.3 3.2 1.45
      vertex -4.57911 4.94007 1.45
    endloop
  endfacet
  facet normal 0 0 1
    outer loop
      vertex -4.57911 4.94007 1.45
      vertex -26.3 3.2 1.45
      vertex -4.45208 4.79792 1.45
    endloop
  endfacet
  facet normal 0 0 1
    outer loop
      vertex -3.81147 4.3954 1.45
      vertex -26.3 3.2 1.45
      vertex -1.2 3.2 1.45
    endloop
  endfacet
  facet normal 0 0 1
    outer loop
      vertex -4.15445 4.56057 1.45
      vertex -26.3 3.2 1.45
      vertex -3.9876 4.46835 1.45
    endloop
  endfacet
  facet normal 0 0 1
    outer loop
      vertex -4.30993 4.67089 1.45
      vertex -26.3 3.2 1.45
      vertex -4.15445 4.56057 1.45
    endloop
  endfacet
  facet normal 0 0 1
    outer loop
      vertex -4.45208 4.79792 1.45
      vertex -26.3 3.2 1.45
      vertex -4.30993 4.67089 1.45
    endloop
  endfacet
  facet normal 1 -0 0
    outer loop
      vertex -1.2 3.2 1.45
      vertex -1.2 22.3 0
      vertex -1.2 22.3 1.45
    endloop
  endfacet
  facet normal 1 0 0
    outer loop
      vertex -1.2 22.3 0
      vertex -1.2 3.2 1.45
      vertex -1.2 3.2 0
    endloop
  endfacet
  facet normal 0 0 -1
    outer loop
      vertex -1.56069 13.8097 0
      vertex -1.2 3.2 0
      vertex -1.56069 6.19034 0
    endloop
  endfacet
  facet normal 0 0 -1
    outer loop
      vertex -1.2 3.2 0
      vertex -1.56069 13.8097 0
      vertex -1.55 14 0
    endloop
  endfacet
  facet normal 0 0 -1
    outer loop
      vertex -1.59262 6.37829 0
      vertex -1.56069 13.8097 0
      vertex -1.56069 6.19034 0
    endloop
  endfacet
  facet normal 0 0 -1
    outer loop
      vertex -1.59262 6.37829 0
      vertex -1.59262 13.6217 0
      vertex -1.56069 13.8097 0
    endloop
  endfacet
  facet normal 0 0 -1
    outer loop
      vertex -1.6454 6.56147 0
      vertex -1.59262 13.6217 0
      vertex -1.59262 6.37829 0
    endloop
  endfacet
  facet normal 0 0 -1
    outer loop
      vertex -1.6454 6.56147 0
      vertex -1.6454 13.4385 0
      vertex -1.59262 13.6217 0
    endloop
  endfacet
  facet normal 0 0 -1
    outer loop
      vertex -1.71835 6.7376 0
      vertex -1.6454 13.4385 0
      vertex -1.6454 6.56147 0
    endloop
  endfacet
  facet normal 0 0 -1
    outer loop
      vertex -1.71835 6.7376 0
      vertex -1.71835 13.2624 0
      vertex -1.6454 13.4385 0
    endloop
  endfacet
  facet normal 0 0 -1
    outer loop
      vertex -1.81057 6.90445 0
      vertex -1.71835 13.2624 0
      vertex -1.71835 6.7376 0
    endloop
  endfacet
  facet normal 0 0 -1
    outer loop
      vertex -1.81057 6.90445 0
      vertex -1.81057 13.0955 0
      vertex -1.71835 13.2624 0
    endloop
  endfacet
  facet normal 0 0 -1
    outer loop
      vertex -1.92089 7.05993 0
      vertex -1.81057 13.0955 0
      vertex -1.81057 6.90445 0
    endloop
  endfacet
  facet normal 0 0 -1
    outer loop
      vertex -1.92089 7.05993 0
      vertex -1.92089 12.9401 0
      vertex -1.81057 13.0955 0
    endloop
  endfacet
  facet normal 0 0 -1
    outer loop
      vertex -2.04792 7.20208 0
      vertex -1.92089 12.9401 0
      vertex -1.92089 7.05993 0
    endloop
  endfacet
  facet normal 0 0 -1
    outer loop
      vertex -2.04792 7.20208 0
      vertex -2.04792 12.7979 0
      vertex -1.92089 12.9401 0
    endloop
  endfacet
  facet normal 0 0 -1
    outer loop
      vertex -2.19007 7.32911 0
      vertex -2.04792 12.7979 0
      vertex -2.04792 7.20208 0
    endloop
  endfacet
  facet normal 0 0 -1
    outer loop
      vertex -2.19007 7.32911 0
      vertex -2.19007 12.6709 0
      vertex -2.04792 12.7979 0
    endloop
  endfacet
  facet normal 0 0 -1
    outer loop
      vertex -2.34554 7.43943 0
      vertex -2.19007 12.6709 0
      vertex -2.19007 7.32911 0
    endloop
  endfacet
  facet normal 0 0 -1
    outer loop
      vertex -2.34554 7.43943 0
      vertex -2.34554 12.5606 0
      vertex -2.19007 12.6709 0
    endloop
  endfacet
  facet normal 0 0 -1
    outer loop
      vertex -2.5124 7.53165 0
      vertex -2.34554 12.5606 0
      vertex -2.34554 7.43943 0
    endloop
  endfacet
  facet normal 0 0 -1
    outer loop
      vertex -2.5124 7.53165 0
      vertex -2.5124 12.4684 0
      vertex -2.34554 12.5606 0
    endloop
  endfacet
  facet normal 0 0 -1
    outer loop
      vertex -2.68853 7.6046 0
      vertex -2.5124 12.4684 0
      vertex -2.5124 7.53165 0
    endloop
  endfacet
  facet normal 0 0 -1
    outer loop
      vertex -2.68853 7.6046 0
      vertex -2.68853 12.3954 0
      vertex -2.5124 12.4684 0
    endloop
  endfacet
  facet normal 0 0 -1
    outer loop
      vertex -2.87171 7.65738 0
      vertex -2.68853 12.3954 0
      vertex -2.68853 7.6046 0
    endloop
  endfacet
  facet normal 0 0 -1
    outer loop
      vertex -2.87171 7.65738 0
      vertex -2.87171 12.3426 0
      vertex -2.68853 12.3954 0
    endloop
  endfacet
  facet normal 0 0 -1
    outer loop
      vertex -3.05966 7.68931 0
      vertex -2.87171 12.3426 0
      vertex -2.87171 7.65738 0
    endloop
  endfacet
  facet normal 0 0 -1
    outer loop
      vertex -3.05966 7.68931 0
      vertex -3.05966 12.3107 0
      vertex -2.87171 12.3426 0
    endloop
  endfacet
  facet normal 0 0 -1
    outer loop
      vertex -3.25 7.7 0
      vertex -3.05966 12.3107 0
      vertex -3.05966 7.68931 0
    endloop
  endfacet
  facet normal 0 0 -1
    outer loop
      vertex -3.25 7.7 0
      vertex -3.25 12.3 0
      vertex -3.05966 12.3107 0
    endloop
  endfacet
  facet normal 0 0 -1
    outer loop
      vertex -3.44034 7.68931 0
      vertex -3.25 12.3 0
      vertex -3.25 7.7 0
    endloop
  endfacet
  facet normal 0 0 -1
    outer loop
      vertex -3.44034 7.68931 0
      vertex -3.44034 12.3107 0
      vertex -3.25 12.3 0
    endloop
  endfacet
  facet normal 0 0 -1
    outer loop
      vertex -3.62829 7.65738 0
      vertex -3.44034 12.3107 0
      vertex -3.44034 7.68931 0
    endloop
  endfacet
  facet normal 0 0 -1
    outer loop
      vertex -3.62829 7.65738 0
      vertex -3.62829 12.3426 0
      vertex -3.44034 12.3107 0
    endloop
  endfacet
  facet normal 0 0 -1
    outer loop
      vertex -3.81147 7.6046 0
      vertex -3.62829 12.3426 0
      vertex -3.62829 7.65738 0
    endloop
  endfacet
  facet normal 0 0 -1
    outer loop
      vertex -3.81147 7.6046 0
      vertex -3.81147 12.3954 0
      vertex -3.62829 12.3426 0
    endloop
  endfacet
  facet normal 0 0 -1
    outer loop
      vertex -3.9876 7.53165 0
      vertex -3.81147 12.3954 0
      vertex -3.81147 7.6046 0
    endloop
  endfacet
  facet normal 0 0 -1
    outer loop
      vertex -3.9876 7.53165 0
      vertex -3.9876 12.4684 0
      vertex -3.81147 12.3954 0
    endloop
  endfacet
  facet normal 0 0 -1
    outer loop
      vertex -4.15445 7.43943 0
      vertex -3.9876 12.4684 0
      vertex -3.9876 7.53165 0
    endloop
  endfacet
  facet normal 0 0 -1
    outer loop
      vertex -4.15445 7.43943 0
      vertex -4.15445 12.5606 0
      vertex -3.9876 12.4684 0
    endloop
  endfacet
  facet normal 0 0 -1
    outer loop
      vertex -4.30993 7.32911 0
      vertex -4.15445 12.5606 0
      vertex -4.15445 7.43943 0
    endloop
  endfacet
  facet normal 0 0 -1
    outer loop
      vertex -4.30993 7.32911 0
      vertex -4.30993 12.6709 0
      vertex -4.15445 12.5606 0
    endloop
  endfacet
  facet normal 0 0 -1
    outer loop
      vertex -4.45208 7.20208 0
      vertex -4.30993 12.6709 0
      vertex -4.30993 7.32911 0
    endloop
  endfacet
  facet normal 0 0 -1
    outer loop
      vertex -4.45208 7.20208 0
      vertex -4.45208 12.7979 0
      vertex -4.30993 12.6709 0
    endloop
  endfacet
  facet normal 0 0 -1
    outer loop
      vertex -4.57911 7.05993 0
      vertex -4.45208 12.7979 0
      vertex -4.45208 7.20208 0
    endloop
  endfacet
  facet normal 0 0 -1
    outer loop
      vertex -4.57911 7.05993 0
      vertex -4.57911 12.9401 0
      vertex -4.45208 12.7979 0
    endloop
  endfacet
  facet normal 0 0 -1
    outer loop
      vertex -4.68943 6.90445 0
      vertex -4.57911 12.9401 0
      vertex -4.57911 7.05993 0
    endloop
  endfacet
  facet normal 0 0 -1
    outer loop
      vertex -4.68943 6.90445 0
      vertex -4.68943 13.0955 0
      vertex -4.57911 12.9401 0
    endloop
  endfacet
  facet normal 0 0 -1
    outer loop
      vertex -4.78165 6.7376 0
      vertex -4.68943 13.0955 0
      vertex -4.68943 6.90445 0
    endloop
  endfacet
  facet normal 0 0 -1
    outer loop
      vertex -4.78165 6.7376 0
      vertex -4.78165 13.2624 0
      vertex -4.68943 13.0955 0
    endloop
  endfacet
  facet normal 0 0 -1
    outer loop
      vertex -4.8546 6.56147 0
      vertex -4.78165 13.2624 0
      vertex -4.78165 6.7376 0
    endloop
  endfacet
  facet normal 0 0 -1
    outer loop
      vertex -4.8546 6.56147 0
      vertex -4.8546 13.4385 0
      vertex -4.78165 13.2624 0
    endloop
  endfacet
  facet normal 0 0 -1
    outer loop
      vertex -26.3 3.2 0
      vertex -4.8546 6.56147 0
      vertex -4.90738 6.37829 0
    endloop
  endfacet
  facet normal -0 0 -1
    outer loop
      vertex -4.8546 6.56147 0
      vertex -26.3 3.2 0
      vertex -4.8546 13.4385 0
    endloop
  endfacet
  facet normal 0 0 -1
    outer loop
      vertex -26.3 3.2 0
      vertex -4.90738 6.37829 0
      vertex -4.93931 6.19034 0
    endloop
  endfacet
  facet normal -0 0 -1
    outer loop
      vertex -4.8546 13.4385 0
      vertex -26.3 3.2 0
      vertex -4.90738 13.6217 0
    endloop
  endfacet
  facet normal 0 0 -1
    outer loop
      vertex -26.3 3.2 0
      vertex -4.93931 6.19034 0
      vertex -4.95 6 0
    endloop
  endfacet
  facet normal -0 0 -1
    outer loop
      vertex -4.90738 13.6217 0
      vertex -26.3 3.2 0
      vertex -4.93931 13.8097 0
    endloop
  endfacet
  facet normal 0 0 -1
    outer loop
      vertex -1.56069 6.19034 0
      vertex -1.2 3.2 0
      vertex -1.55 6 0
    endloop
  endfacet
  facet normal 0 0 -1
    outer loop
      vertex -1.2 3.2 0
      vertex -1.56069 5.80966 0
      vertex -1.55 6 0
    endloop
  endfacet
  facet normal 0 0 -1
    outer loop
      vertex -1.2 3.2 0
      vertex -1.59262 5.62171 0
      vertex -1.56069 5.80966 0
    endloop
  endfacet
  facet normal 0 0 -1
    outer loop
      vertex -1.2 3.2 0
      vertex -1.6454 5.43853 0
      vertex -1.59262 5.62171 0
    endloop
  endfacet
  facet normal 0 0 -1
    outer loop
      vertex -1.2 3.2 0
      vertex -1.71835 5.2624 0
      vertex -1.6454 5.43853 0
    endloop
  endfacet
  facet normal 0 0 -1
    outer loop
      vertex -1.2 3.2 0
      vertex -1.81057 5.09554 0
      vertex -1.71835 5.2624 0
    endloop
  endfacet
  facet normal 0 0 -1
    outer loop
      vertex -1.2 3.2 0
      vertex -1.92089 4.94007 0
      vertex -1.81057 5.09554 0
    endloop
  endfacet
  facet normal 0 0 -1
    outer loop
      vertex -1.2 3.2 0
      vertex -2.04792 4.79792 0
      vertex -1.92089 4.94007 0
    endloop
  endfacet
  facet normal 0 0 -1
    outer loop
      vertex -1.2 3.2 0
      vertex -2.19007 4.67089 0
      vertex -2.04792 4.79792 0
    endloop
  endfacet
  facet normal 0 0 -1
    outer loop
      vertex -1.2 3.2 0
      vertex -2.34554 4.56057 0
      vertex -2.19007 4.67089 0
    endloop
  endfacet
  facet normal 0 0 -1
    outer loop
      vertex -1.2 3.2 0
      vertex -2.5124 4.46835 0
      vertex -2.34554 4.56057 0
    endloop
  endfacet
  facet normal 0 0 -1
    outer loop
      vertex -1.2 3.2 0
      vertex -2.68853 4.3954 0
      vertex -2.5124 4.46835 0
    endloop
  endfacet
  facet normal 0 0 -1
    outer loop
      vertex -1.2 3.2 0
      vertex -2.87171 4.34262 0
      vertex -2.68853 4.3954 0
    endloop
  endfacet
  facet normal 0 0 -1
    outer loop
      vertex -1.2 3.2 0
      vertex -3.05966 4.31069 0
      vertex -2.87171 4.34262 0
    endloop
  endfacet
  facet normal 0 0 -1
    outer loop
      vertex -1.2 3.2 0
      vertex -3.25 4.3 0
      vertex -3.05966 4.31069 0
    endloop
  endfacet
  facet normal 0 0 -1
    outer loop
      vertex -1.2 3.2 0
      vertex -3.44034 4.31069 0
      vertex -3.25 4.3 0
    endloop
  endfacet
  facet normal 0 0 -1
    outer loop
      vertex -1.2 3.2 0
      vertex -3.62829 4.34262 0
      vertex -3.44034 4.31069 0
    endloop
  endfacet
  facet normal 0 0 -1
    outer loop
      vertex -1.2 3.2 0
      vertex -3.81147 4.3954 0
      vertex -3.62829 4.34262 0
    endloop
  endfacet
  facet normal 0 0 -1
    outer loop
      vertex -26.3 3.2 0
      vertex -3.81147 4.3954 0
      vertex -1.2 3.2 0
    endloop
  endfacet
  facet normal 0 0 -1
    outer loop
      vertex -26.3 22.3 0
      vertex -4.93931 13.8097 0
      vertex -26.3 3.2 0
    endloop
  endfacet
  facet normal -0 0 -1
    outer loop
      vertex -4.93931 5.80966 0
      vertex -26.3 3.2 0
      vertex -4.95 6 0
    endloop
  endfacet
  facet normal -0 0 -1
    outer loop
      vertex -4.90738 5.62171 0
      vertex -26.3 3.2 0
      vertex -4.93931 5.80966 0
    endloop
  endfacet
  facet normal -0 0 -1
    outer loop
      vertex -4.8546 5.43853 0
      vertex -26.3 3.2 0
      vertex -4.90738 5.62171 0
    endloop
  endfacet
  facet normal -0 0 -1
    outer loop
      vertex -4.78165 5.2624 0
      vertex -26.3 3.2 0
      vertex -4.8546 5.43853 0
    endloop
  endfacet
  facet normal -0 0 -1
    outer loop
      vertex -4.68943 5.09554 0
      vertex -26.3 3.2 0
      vertex -4.78165 5.2624 0
    endloop
  endfacet
  facet normal -0 0 -1
    outer loop
      vertex -4.57911 4.94007 0
      vertex -26.3 3.2 0
      vertex -4.68943 5.09554 0
    endloop
  endfacet
  facet normal -0 0 -1
    outer loop
      vertex -4.45208 4.79792 0
      vertex -26.3 3.2 0
      vertex -4.57911 4.94007 0
    endloop
  endfacet
  facet normal -0 0 -1
    outer loop
      vertex -4.30993 4.67089 0
      vertex -26.3 3.2 0
      vertex -4.45208 4.79792 0
    endloop
  endfacet
  facet normal -0 0 -1
    outer loop
      vertex -4.15445 4.56057 0
      vertex -26.3 3.2 0
      vertex -4.30993 4.67089 0
    endloop
  endfacet
  facet normal -0 0 -1
    outer loop
      vertex -3.9876 4.46835 0
      vertex -26.3 3.2 0
      vertex -4.15445 4.56057 0
    endloop
  endfacet
  facet normal -0 0 -1
    outer loop
      vertex -3.81147 4.3954 0
      vertex -26.3 3.2 0
      vertex -3.9876 4.46835 0
    endloop
  endfacet
  facet normal 0 0 -1
    outer loop
      vertex -1.2 3.2 0
      vertex -1.55 14 0
      vertex -1.2 22.3 0
    endloop
  endfacet
  facet normal 0 0 -1
    outer loop
      vertex -1.56069 14.1903 0
      vertex -1.2 22.3 0
      vertex -1.55 14 0
    endloop
  endfacet
  facet normal 0 0 -1
    outer loop
      vertex -1.59262 14.3783 0
      vertex -1.2 22.3 0
      vertex -1.56069 14.1903 0
    endloop
  endfacet
  facet normal 0 0 -1
    outer loop
      vertex -1.6454 14.5615 0
      vertex -1.2 22.3 0
      vertex -1.59262 14.3783 0
    endloop
  endfacet
  facet normal 0 0 -1
    outer loop
      vertex -1.71835 14.7376 0
      vertex -1.2 22.3 0
      vertex -1.6454 14.5615 0
    endloop
  endfacet
  facet normal 0 0 -1
    outer loop
      vertex -1.81057 14.9045 0
      vertex -1.2 22.3 0
      vertex -1.71835 14.7376 0
    endloop
  endfacet
  facet normal 0 0 -1
    outer loop
      vertex -1.92089 15.0599 0
      vertex -1.2 22.3 0
      vertex -1.81057 14.9045 0
    endloop
  endfacet
  facet normal 0 0 -1
    outer loop
      vertex -2.04792 15.2021 0
      vertex -1.2 22.3 0
      vertex -1.92089 15.0599 0
    endloop
  endfacet
  facet normal 0 0 -1
    outer loop
      vertex -2.19007 15.3291 0
      vertex -1.2 22.3 0
      vertex -2.04792 15.2021 0
    endloop
  endfacet
  facet normal 0 0 -1
    outer loop
      vertex -2.34554 15.4394 0
      vertex -1.2 22.3 0
      vertex -2.19007 15.3291 0
    endloop
  endfacet
  facet normal 0 0 -1
    outer loop
      vertex -2.5124 15.5316 0
      vertex -1.2 22.3 0
      vertex -2.34554 15.4394 0
    endloop
  endfacet
  facet normal 0 0 -1
    outer loop
      vertex -2.68853 15.6046 0
      vertex -1.2 22.3 0
      vertex -2.5124 15.5316 0
    endloop
  endfacet
  facet normal 0 0 -1
    outer loop
      vertex -2.87171 15.6574 0
      vertex -1.2 22.3 0
      vertex -2.68853 15.6046 0
    endloop
  endfacet
  facet normal 0 0 -1
    outer loop
      vertex -3.05966 15.6893 0
      vertex -1.2 22.3 0
      vertex -2.87171 15.6574 0
    endloop
  endfacet
  facet normal 0 0 -1
    outer loop
      vertex -3.25 15.7 0
      vertex -1.2 22.3 0
      vertex -3.05966 15.6893 0
    endloop
  endfacet
  facet normal 0 0 -1
    outer loop
      vertex -3.44034 15.6893 0
      vertex -1.2 22.3 0
      vertex -3.25 15.7 0
    endloop
  endfacet
  facet normal 0 0 -1
    outer loop
      vertex -3.62829 15.6574 0
      vertex -1.2 22.3 0
      vertex -3.44034 15.6893 0
    endloop
  endfacet
  facet normal 0 0 -1
    outer loop
      vertex -3.81147 15.6046 0
      vertex -1.2 22.3 0
      vertex -3.62829 15.6574 0
    endloop
  endfacet
  facet normal 0 0 -1
    outer loop
      vertex -3.9876 15.5316 0
      vertex -1.2 22.3 0
      vertex -3.81147 15.6046 0
    endloop
  endfacet
  facet normal 0 0 -1
    outer loop
      vertex -4.15445 15.4394 0
      vertex -1.2 22.3 0
      vertex -3.9876 15.5316 0
    endloop
  endfacet
  facet normal 0 0 -1
    outer loop
      vertex -4.30993 15.3291 0
      vertex -1.2 22.3 0
      vertex -4.15445 15.4394 0
    endloop
  endfacet
  facet normal 0 0 -1
    outer loop
      vertex -4.45208 15.2021 0
      vertex -1.2 22.3 0
      vertex -4.30993 15.3291 0
    endloop
  endfacet
  facet normal 0 0 -1
    outer loop
      vertex -26.3 22.3 0
      vertex -4.45208 15.2021 0
      vertex -4.57911 15.0599 0
    endloop
  endfacet
  facet normal 0 0 -1
    outer loop
      vertex -26.3 22.3 0
      vertex -4.57911 15.0599 0
      vertex -4.68943 14.9045 0
    endloop
  endfacet
  facet normal 0 0 -1
    outer loop
      vertex -26.3 22.3 0
      vertex -4.68943 14.9045 0
      vertex -4.78165 14.7376 0
    endloop
  endfacet
  facet normal 0 0 -1
    outer loop
      vertex -4.93931 13.8097 0
      vertex -26.3 22.3 0
      vertex -4.95 14 0
    endloop
  endfacet
  facet normal 0 0 -1
    outer loop
      vertex -4.95 14 0
      vertex -26.3 22.3 0
      vertex -4.93931 14.1903 0
    endloop
  endfacet
  facet normal 0 0 -1
    outer loop
      vertex -4.93931 14.1903 0
      vertex -26.3 22.3 0
      vertex -4.90738 14.3783 0
    endloop
  endfacet
  facet normal 0 0 -1
    outer loop
      vertex -4.90738 14.3783 0
      vertex -26.3 22.3 0
      vertex -4.8546 14.5615 0
    endloop
  endfacet
  facet normal 0 0 -1
    outer loop
      vertex -4.8546 14.5615 0
      vertex -26.3 22.3 0
      vertex -4.78165 14.7376 0
    endloop
  endfacet
  facet normal 0 0 -1
    outer loop
      vertex -4.45208 15.2021 0
      vertex -26.3 22.3 0
      vertex -1.2 22.3 0
    endloop
  endfacet
  facet normal 0 -1 0
    outer loop
      vertex -26.3 3.2 0
      vertex -1.2 3.2 1.45
      vertex -26.3 3.2 1.45
    endloop
  endfacet
  facet normal 0 -1 -0
    outer loop
      vertex -1.2 3.2 1.45
      vertex -26.3 3.2 0
      vertex -1.2 3.2 0
    endloop
  endfacet
  facet normal 0 1 -0
    outer loop
      vertex -1.2 22.3 0
      vertex -26.3 22.3 1.45
      vertex -1.2 22.3 1.45
    endloop
  endfacet
  facet normal 0 1 0
    outer loop
      vertex -26.3 22.3 1.45
      vertex -1.2 22.3 0
      vertex -26.3 22.3 0
    endloop
  endfacet
endsolid OpenSCAD_Model
